<svg height="28" viewBox="0 0 42 28" width="42" xmlns="http://www.w3.org/2000/svg"><path d="m12.598 4.775c.245-.003.449.189.465.436l.935 12.28c.011.132-.033.262-.121.358-.089.097-.214.152-.344.151h-13.066c-.13 0-.255-.054-.344-.15-.088-.097-.132-.227-.121-.359l.935-12.28c.016-.247.22-.439.465-.436h2.685v-1.515c0-1.8 1.309-3.26 2.918-3.26s2.913 1.459 2.913 3.26v1.515zm-3.606 0v-1.515c.075-.767-.287-1.51-.934-1.918-.646-.407-1.465-.407-2.111 0-.647.407-1.009 1.15-.934 1.918v1.515zm-8.022 12.28h12.058l-.862-11.335h-10.332z" fill-rule="evenodd" transform="translate(14 4)"/></svg>