
<svg width="140" height="30" viewBox="0 0 140 30" fill="none" xmlns="http://www.w3.org/2000/svg">
<path d="M64.0473 20.1505V8H60V8.34192C60.9745 8.34192 60.9527 9.84946 60.9527 9.84946V22H65V21.655C64.0255 21.655 64.0473 20.1505 64.0473 20.1505Z" fill="black"/>
<path d="M16.626 20.3997L8.86145 0H8.33034L0 21.9971H0.51668L3.18666 14.8367H10.6742L13.3615 22H18V21.6747C17.2322 21.6717 16.7877 20.8042 16.626 20.3997ZM3.3483 14.4146L6.92175 4.83027L10.5212 14.4146H3.3483Z" fill="black"/>
<path d="M28.4311 8.87191C28.0279 8.31162 27.3679 8.02155 26.4511 8.00168C26.0495 7.98839 25.649 8.05403 25.2691 8.1954C24.9564 8.32736 24.6738 8.53068 24.4406 8.79145C24.0611 9.24826 23.7717 9.78365 23.5901 10.365V8.57687H20V8.9047C20.6766 8.9047 20.8285 9.79878 20.8285 10.2101V22H24.4406V21.6692C23.5928 21.6692 23.5928 20.2267 23.5928 20.2267V13.1486C23.5928 11.7578 23.7769 10.6452 24.1451 9.81071C24.5041 9.01597 24.9773 8.61363 25.5646 8.60369C25.7197 8.59573 25.8738 8.63497 26.0092 8.71694C26.0092 8.71694 26.9371 9.24743 26.5864 10.1117C26.5864 10.1117 26.0644 11.1459 27.1166 11.5244C27.2645 11.5753 27.4174 11.6073 27.5723 11.6197C27.7692 11.65 27.9698 11.6339 28.1605 11.5727C28.3512 11.5115 28.5273 11.4066 28.6769 11.2651C28.8815 11.0347 28.997 10.7288 29 10.4097C28.9766 9.84253 28.7761 9.30054 28.4311 8.87191Z" fill="black"/>
<path d="M57.0723 20.3293V14.0805C57.0723 13.3301 57.0057 12.5811 56.873 11.8412C56.6983 11.0901 56.3402 10.3876 55.827 9.78951C55.0113 8.78906 53.6882 8.27028 51.8577 8.23315C51.3521 8.22421 50.8503 8.3161 50.3851 8.5028C49.9625 8.67429 49.5804 8.92339 49.2613 9.23554C48.9744 9.50042 48.7319 9.80482 48.5421 10.1383C48.3639 10.4534 48.2058 10.7784 48.0689 11.1114V0H44V0.32241C44.9962 0.32241 44.9495 1.74687 44.9495 1.74687V22H48.0627V13.4415C48.0657 12.3419 48.3441 11.2583 48.8753 10.279C49.1451 9.80348 49.5198 9.38777 49.9742 9.05968C50.4428 8.76285 51.0009 8.61684 51.565 8.64349C52.5779 8.66303 53.2358 9.05969 53.5388 9.83347C53.8418 10.6072 53.9798 11.7015 53.9529 13.1162V22H58V21.6747C57.1626 21.6747 57.0723 20.6752 57.0723 20.3293Z" fill="black"/>
<path d="M79.5917 8L75.9007 17.9435L71.8069 8H68V8.32986C68.5903 8.32986 68.9986 8.86775 69.1945 9.35215L74.3945 22H74.7917L80 8H79.5917Z" fill="black"/>
<path d="M135.45 14.5725C134.265 14.7106 133.071 14.7678 131.878 14.7438V15.0292H139.833C139.96 14.5759 140.015 14.1061 139.996 13.6363C139.996 12.3746 139.413 10.4708 138.422 9.53452C137.935 9.05597 137.349 8.68429 136.704 8.44413H136.66C136.317 8.31486 135.961 8.21924 135.599 8.15869C133.068 7.66488 131.347 8.48124 131.347 8.48124C129.957 9.00708 128.785 9.97124 128.017 11.2215C127.321 12.3528 126.969 13.6548 127.002 14.975C127.002 17.1187 127.687 18.837 129.043 20.0958C130.371 21.3336 132.138 22.0166 133.972 21.9997C136.054 21.9997 138.299 21.1434 139.512 19.5592V19.3965C138.928 19.9925 138.226 20.4662 137.449 20.789C136.672 21.1119 135.836 21.2771 134.992 21.2747C133.458 21.2747 132.54 20.5639 131.525 19.4107C130.51 18.2576 130.609 16.8418 130.609 14.878C130.609 11.1929 131.035 9.34898 132.487 8.5526C132.953 8.32002 133.469 8.2015 133.992 8.20722C134.631 8.16332 135.264 8.3513 135.771 8.73529C136.646 9.56592 136.876 11.1958 136.894 12.7657C136.818 13.956 136.899 14.25 135.45 14.5725Z" fill="black"/>
<path d="M91.7022 3C90.8382 5.30269 89 7 89 7H90.0938C93.2946 5.2744 94 3.01415 94 3.01415L91.7022 3Z" fill="black"/>
<path d="M92.7054 9.88429C91.9123 9.01115 90.7888 8.48562 89.4894 8.2037C88.3388 7.98883 87.1634 7.94365 86 8.06957V8.34329C86.9312 8.28644 87.8656 8.3176 88.791 8.43636C89.2692 8.50686 89.7203 8.70425 90.0985 9.00842C91.0974 9.89525 91.1191 11.1981 91.1624 11.4198C91.217 11.8601 91.2387 12.3038 91.2274 12.7473C91.1516 13.8696 91.1895 14.3595 89.8738 14.5648C88.7741 14.6927 87.6672 14.7467 86.5604 14.7263V15H93.8424C93.962 14.5796 94.0141 14.1425 93.9967 13.7053C93.994 12.5229 93.6204 10.7547 92.7054 9.88429Z" fill="black"/>
<path d="M94 19.2151C93.4392 19.853 92.7661 20.3599 92.0213 20.7053C91.2765 21.0507 90.4755 21.2274 89.6666 21.2246C88.197 21.2246 87.3152 20.4649 86.3438 19.2304C85.3724 17.9958 85.4648 16.4733 85.4648 14.3688C85.4648 10.9531 85.7699 9.01092 86.7553 8H85.2297C84.8417 8.2484 84.4802 8.54328 84.1519 8.87919C83.6993 9.34579 83.3033 9.87393 82.9734 10.4507C82.3074 11.6634 81.9705 13.0585 82.002 14.4729C82.002 16.7705 82.6599 18.6085 83.9616 19.9595C85.2344 21.2859 86.9293 22.0177 88.6868 21.9997C90.6828 21.9997 92.8355 21.0807 93.9916 19.3835L94 19.2151Z" fill="black"/>
<path d="M124.599 20.5638L118.958 13.2363L124.41 8.79883H123.811L116.78 14.4293V0H113V0.32241C113.928 0.32241 113.887 1.74101 113.887 1.74101V22H116.78V15.0711L122.104 22H126V21.6747C125.497 21.6717 125.02 21.0943 124.599 20.5638Z" fill="black"/>
<path d="M110.48 12.4189C110.148 11.608 109.682 10.8563 109.102 10.1938C108.531 9.54337 107.842 9.00375 107.07 8.60278C106.304 8.20474 105.449 7.9978 104.583 8.00009C104.026 7.99612 103.477 8.12345 102.981 8.37142C102.513 8.60404 102.1 8.92992 101.767 9.32831V8.55994H98V8.87414C98.9143 8.87414 98.8707 10.2566 98.8707 10.2566V30H101.773V20.3283C102.135 20.759 102.591 21.1028 103.108 21.3337C103.645 21.5881 104.234 21.7199 104.829 21.7193C105.683 21.725 106.525 21.5291 107.285 21.1481C108.037 20.7736 108.704 20.2538 109.247 19.6199C109.801 18.9718 110.237 18.2345 110.536 17.4405C110.842 16.6457 111 15.8027 111 14.9525C110.995 14.0829 110.818 13.2226 110.48 12.4189ZM107.349 18.6459C107.18 19.5827 106.884 20.2569 106.478 20.6682C106.287 20.8984 106.046 21.0839 105.773 21.2109C105.47 21.3139 105.15 21.3604 104.829 21.348C104.206 21.3369 103.595 21.1782 103.047 20.8853C102.45 20.5902 101.993 20.078 101.773 19.4571V9.91673C102.038 9.41901 102.458 9.01837 102.972 8.77417C103.471 8.51589 104.025 8.37785 104.589 8.37142C104.949 8.36556 105.308 8.41273 105.654 8.51138C105.975 8.61109 106.261 8.79827 106.478 9.05124C106.896 9.46256 107.192 10.1652 107.349 11.1535C107.537 12.4111 107.623 13.6815 107.604 14.9525C107.628 16.1882 107.547 17.4237 107.36 18.6459H107.349Z" fill="black"/>
<path d="M41.1852 19.7707C40.9671 20.0216 38.8524 22.3563 36.2797 21.0193C36.2089 20.9766 36.138 20.9338 36.0672 20.8825C35.6322 20.5492 35.2677 20.1254 34.9966 19.6378C34.7256 19.1502 34.5538 18.6092 34.492 18.0489C34.492 18.0033 34.4784 17.9605 34.4729 17.9177C34.3811 16.9773 34.3384 16.0323 34.3448 15.0869C34.3248 12.6999 34.5338 10.9619 34.9716 9.87293C35.1405 9.39184 35.453 8.98042 35.8629 8.69958C36.2727 8.41873 36.7581 8.28339 37.2472 8.31358C37.6026 8.28722 37.9551 8.39661 38.2392 8.62146C38.426 8.74339 38.5659 8.93002 38.6346 9.14882C38.7034 9.36762 38.6965 9.60472 38.6153 9.81878C38.6153 9.81878 37.983 11.0617 39.302 11.5292C39.5226 11.596 39.751 11.6306 39.9806 11.6318C40.3162 11.6512 40.6516 11.5908 40.9617 11.4551C41.1209 11.3845 41.2557 11.2649 41.3482 11.1121C41.4408 10.9593 41.4865 10.7806 41.4795 10.5999C41.4795 10.0544 41.1506 9.49854 40.4929 8.93219C39.8353 8.36584 38.7942 8.05511 37.3698 8C36.6745 8.00579 35.9855 8.13894 35.3341 8.3934C35.3341 8.3934 30.9247 9.93566 31.001 15.0385C31.001 15.0385 30.9029 19.9902 35.146 21.5952L35.2006 21.618C35.8467 21.8661 36.529 21.9953 37.2172 22C39.4138 22 41.0053 20.7913 42 18.8328V18.5021C41.7806 18.9592 41.5068 19.3855 41.1852 19.7707Z" fill="black"/>
</svg>