
<svg width="488" height="106" viewBox="0 0 488 106" fill="none" xmlns="http://www.w3.org/2000/svg">
<path d="M482.455 100.111H465.818V98.0831H476.147V7.91692H465.818V5.88892H482.455V100.111Z" fill="#222222"/>
<path d="M0 5.88892H16.6364V7.64578H6.30765V97.8921H16.6364V100.111H0V5.88892Z" fill="#222222"/>
<path d="M71.8311 76.8051L56.0678 82.0908H55.6347V75.9107C54.1419 78.0468 52.0735 79.7739 49.6395 80.9165C47.2056 82.0591 44.4929 82.5763 41.777 82.4159C37.5331 82.4159 22.2028 80.3832 22.2028 59.7291C21.9433 53.7748 24.0947 47.9491 28.2242 43.4234C32.3537 38.8977 38.1552 36.0077 44.462 35.3345C46.5762 35.3092 48.6749 35.6768 50.637 36.4165C52.5992 37.1562 54.386 38.2529 55.8945 39.644L62.6502 35.3345H64.9022V70.3C64.9022 74.0405 64.9022 76.0735 70.1855 76.0735C70.8182 76.1467 71.4582 76.1467 72.0909 76.0735L71.8311 76.8051ZM55.6347 47.5318C55.5447 44.8281 54.3371 42.2636 52.2677 40.3815C50.1983 38.4994 47.4297 37.4475 44.5485 37.4488C38.4857 37.4488 31.2105 42.3276 31.2105 56.0698C31.2105 71.1944 38.9188 76.8051 46.0209 76.8051C48.1042 76.9295 50.1735 76.4083 51.9104 75.3211C53.6473 74.234 54.9557 72.6412 55.6347 70.7878V47.5318Z" fill="#222222"/>
<path d="M88.1011 50.3778H83.8079L77.6364 35.3333H94.2727L88.1011 50.3778ZM77.6364 76.5555L83.8079 61.511H88.1011L94.2727 76.5555H77.6364Z" fill="#222222"/>
<path d="M127.877 82.4445V80.8309H129.731C130.941 80.8309 131.828 80.1138 131.828 79.1277C131.742 78.1837 131.373 77.299 130.78 76.6174L115.702 54.4757V75.0039C115.702 78.9482 117.234 80.4722 121.265 80.6515H123.281V82.265H99.8182V80.6515C106.994 79.3068 107.317 78.9486 107.317 73.1217V19.3355C107.317 13.9569 106.43 12.5225 103.043 12.5225H99.8182V10.7295L102.802 9.83272C108.849 8.12948 111.429 7.23357 115.299 5.88892H115.702V52.6827L129.49 39.0567C130.621 38.1016 131.419 36.7391 131.747 35.202C131.747 33.7677 130.699 33.3198 126.748 33.2301V31.6166H147.228V33.3199C140.778 33.3199 137.875 34.6645 125.539 47.3043L122.636 50.3519L137.956 71.9563C139.207 74.245 140.924 76.1751 142.969 77.5919C145.013 79.0087 147.328 79.8724 149.727 80.1136V81.7272L127.877 82.4445Z" fill="#222222"/>
<path d="M194.091 77.6087C193.164 79.1107 191.879 80.3415 190.361 81.1831C188.842 82.0247 187.14 82.4493 185.418 82.4158C181.856 82.4158 179.765 80.4127 179.3 75.1252C177.677 77.3695 175.575 79.1953 173.157 80.4599C170.739 81.7246 168.071 82.3942 165.362 82.4158C164.02 82.5227 162.672 82.3291 161.409 81.8486C160.146 81.3682 158.998 80.6122 158.043 79.6316C157.087 78.651 156.348 77.4691 155.873 76.1662C155.399 74.8634 155.202 73.4697 155.295 72.0809C155.353 69.6211 155.998 67.2146 157.173 65.0758C158.349 62.937 160.018 61.1326 162.032 59.8237C167.469 56.4715 173.264 53.783 179.3 51.8123V46.7651C179.3 40.5964 176.126 37.8726 171.557 37.8726C166.988 37.8726 164.82 40.0356 164.82 42.7595C164.82 45.4833 165.439 44.8426 165.439 46.9255C165.248 48.0059 164.681 48.9762 163.844 49.6525C163.008 50.3289 161.96 50.6644 160.901 50.5953C159.841 50.5262 158.843 50.0572 158.095 49.2775C157.347 48.4978 156.902 47.4614 156.844 46.3647C156.949 44.7051 157.459 43.1002 158.326 41.6994C159.192 40.2986 160.387 39.1475 161.8 38.3533C165.161 36.339 168.99 35.3139 172.873 35.3891C174.963 35.1972 177.068 35.5016 179.028 36.2791C180.987 37.0566 182.749 38.2867 184.179 39.8755C186.502 42.7596 186.889 44.8426 186.889 50.9312V69.9181C186.889 74.4846 188.128 76.4875 189.832 76.4875C190.618 76.4767 191.395 76.3007 192.113 75.9702C192.832 75.6397 193.479 75.1611 194.013 74.5644L194.091 77.6087ZM179.146 54.1355C174.693 55.5416 170.522 57.7671 166.833 60.7049C165.792 61.7409 164.967 62.9858 164.408 64.3634C163.849 65.7409 163.567 67.2221 163.581 68.7162C163.581 74.0037 166.446 76.7276 170.24 76.7276C172.21 76.7648 174.147 76.208 175.816 75.1252C176.921 74.5597 177.832 73.658 178.428 72.541C179.023 71.4239 179.273 70.1453 179.146 68.8766V54.1355Z" fill="#222222"/>
<path d="M194.091 81.7796V79.9514C200.916 79.9514 201.087 77.5422 201.087 72.557V44.2238C201.087 39.0723 201.087 37.4939 194.091 37.2447V35.3333H216.273V37.5768C209.533 37.5768 209.533 39.7373 209.533 45.0549V72.3075C209.533 77.3758 209.533 80.0346 216.273 80.6162V82.4444L194.091 81.7796Z" fill="#222222"/>
<path d="M266.182 36.5577C263.219 36.5577 262.439 37.7008 259.866 44.7226L247.469 77.3822C245.988 81.1381 245.364 82.4444 244.741 82.4444C244.117 82.4444 243.649 81.6283 243.025 79.7504C242.72 79.0619 242.46 78.3526 242.246 77.6274L230.629 48.5604C226.418 38.1093 225.483 37.048 221.818 36.8847V35.3333H240.764V36.8847C237.49 36.8847 236.32 37.8641 236.32 39.5787C236.394 40.9263 236.684 42.2516 237.178 43.4982L247.08 69.4625L256.67 43.1713C257.033 42.2096 257.218 41.1844 257.215 40.1503C257.215 38.1907 255.812 37.2113 252.693 36.8847V35.3333H266.182V36.5577Z" fill="#222222"/>
<path d="M266.182 58.8889V53H293.909V58.8889H266.182Z" fill="#222222"/>
<path d="M360.455 66.6568C358.905 71.1686 356.334 75.1851 352.979 78.3367C349.918 81.0873 346.036 82.5296 342.064 82.3922C339.648 82.574 337.234 82.0074 335.103 80.7581C332.972 79.5088 331.212 77.6282 330.028 75.3357C328.251 77.4866 326.087 79.222 323.671 80.4353C321.254 81.6486 318.635 82.3143 315.974 82.3922C314.592 82.5407 313.197 82.3715 311.88 81.8952C310.563 81.4189 309.354 80.6465 308.331 79.6283C307.308 78.6102 306.494 77.3692 305.943 75.9867C305.392 74.6041 305.117 73.111 305.134 71.6049C304.901 69.9376 304.973 68.2368 305.347 66.5999C305.72 64.9629 306.388 63.422 307.312 62.0656C308.236 60.7093 309.397 59.5642 310.729 58.6958C312.062 57.8274 313.539 57.2529 315.077 57.0052L327.113 53.3551V47.0282C327.113 40.5394 325.692 37.9439 321.431 37.9439C317.17 37.9439 315.077 39.8907 315.077 42.1618C315.077 44.4329 315.077 44.5137 315.077 46.3792C315.13 46.9838 315.064 47.5938 314.884 48.1689C314.704 48.7439 314.413 49.2709 314.032 49.7154C313.651 50.1599 313.187 50.5118 312.671 50.7476C312.155 50.9835 311.599 51.0979 311.04 51.0838C310.46 51.1131 309.881 51.004 309.345 50.7639C308.808 50.5239 308.326 50.1589 307.934 49.6946C307.542 49.2304 307.248 48.6781 307.075 48.0773C306.901 47.4764 306.851 46.8415 306.928 46.2173C306.928 40.0529 313.357 35.3483 321.879 35.3483C323.913 35.2519 325.942 35.621 327.836 36.4315C329.729 37.242 331.444 38.4759 332.869 40.0529C335.855 36.9871 339.822 35.3002 343.933 35.3483C353.427 35.3483 357.763 40.7829 358.885 53.7605H334.514C333.914 59.6098 334.793 65.5257 337.055 70.8747C337.984 72.4902 339.288 73.8126 340.836 74.7094C342.385 75.6062 344.123 76.046 345.877 75.9847C351.185 75.9847 354.773 73.3079 359.258 66.1702L360.455 66.6568ZM327.187 56.1937C315.899 60.6548 313.357 63.0072 313.357 69.0905C313.357 73.7949 315.151 77.8501 319.487 77.8501C323.823 77.8501 328.907 74.6057 328.907 72.8213C327.845 69.2565 327.29 65.5368 327.262 61.7904L327.187 56.1937ZM350.138 50.7595C350.138 41.9185 347.821 38.4306 342.662 38.4306C337.504 38.4306 335.186 41.9185 334.588 50.7595H350.138Z" fill="#222222"/>
<path d="M376.524 39.5596C377.836 36.7911 379.91 34.4767 382.489 32.9022C385.068 31.3278 388.04 30.5621 391.038 30.699C402.529 30.699 410.304 41.2429 410.304 54.8882C410.541 58.4128 410.069 61.9495 408.917 65.2793C407.766 68.609 405.959 71.6608 403.61 74.2448C401.261 76.8287 398.419 78.8896 395.26 80.3002C392.102 81.7107 388.695 82.4407 385.25 82.4445C376.61 82.4445 367.539 78.9002 367.539 75.1787V19.0029C367.539 13.5094 366.675 12.623 362.269 12.623C361.668 12.5172 361.055 12.5172 360.455 12.623V10.674L363.651 9.69944C368.662 8.19314 371.513 7.48382 376.005 5.88892H376.524V39.5596ZM376.524 72.7867C376.524 76.331 381.362 78.5458 386.978 78.5458C388.875 78.6047 390.76 78.2115 392.484 77.3966C394.208 76.5817 395.724 75.3677 396.913 73.85C399.804 69.6073 401.205 64.484 400.887 59.3185C401.123 53.3854 399.683 47.5085 396.74 42.3945C395.666 40.8071 394.232 39.5109 392.562 38.6159C390.892 37.7209 389.035 37.2541 387.15 37.2557C384.614 37.0743 382.104 37.8883 380.131 39.5336C378.158 41.1789 376.869 43.5323 376.524 46.1163V72.7867Z" fill="#222222"/>
<path d="M441.182 82.4445V80.8309H443.601C444.944 80.8309 445.93 80.1138 445.93 79.1277C445.835 78.1837 445.425 77.299 444.765 76.6174L428.012 54.4757V75.0039C428.012 78.9482 429.715 80.4722 434.194 80.6515H436.434V82.265H410.364V80.6515C418.337 79.3068 418.695 78.9486 418.695 73.1217V19.3355C418.695 13.9569 417.71 12.5225 413.947 12.5225H410.364V10.7295L413.678 9.83272C420.398 8.12948 423.264 7.23357 427.565 5.88892H428.012V52.6827L443.332 39.0567C444.589 38.1016 445.476 36.7391 445.84 35.202C445.84 33.7677 444.676 33.3198 440.286 33.2301V31.6166H463.041V33.3199C455.874 33.3199 452.649 34.6645 438.942 47.3043L435.717 50.3519L452.739 71.9563C454.129 74.245 456.037 76.1751 458.308 77.5919C460.58 79.0087 463.152 79.8724 465.818 80.1136V81.7272L441.182 82.4445Z" fill="#222222"/>
</svg>